<svg width="32" height="19" viewBox="0 0 32 19" fill="none" xmlns="http://www.w3.org/2000/svg">
<path d="M8.06485 13.1598C8.24618 12.4831 8.98246 11.9345 9.70938 11.9345H23.5559C24.2828 11.9345 24.7251 12.4831 24.5438 13.1598C24.3624 13.8365 23.6261 14.3851 22.8992 14.3851H9.05274C8.32582 14.3851 7.88353 13.8365 8.06485 13.1598Z" fill="#FB671D"/>
<path d="M8.28642 9.48389C8.46774 8.80717 9.20402 8.25858 9.93094 8.25858H26.7257C27.4527 8.25858 27.8949 8.80717 27.7136 9.48389C27.5323 10.1606 26.796 10.7092 26.0691 10.7092H9.2743C8.54738 10.7092 8.10509 10.1606 8.28642 9.48389Z" fill="#FB671D"/>
<path d="M8.13944 5.80796C8.32077 5.13124 9.05705 4.58265 9.78397 4.58265H30.3431C31.07 4.58265 31.5123 5.13124 31.331 5.80796C31.1497 6.48468 30.4134 7.03327 29.6865 7.03327H9.12733C8.4004 7.03327 7.95811 6.48468 8.13944 5.80796Z" fill="#FB671D"/>
<path d="M8.41919 0.0553581C9.16445 -0.124094 9.80537 0.251066 9.85073 0.893301L10.6962 12.8648C10.7415 13.507 10.1742 14.1731 9.42889 14.3526C8.68363 14.532 8.04271 14.1569 7.99735 13.5147L7.1519 1.54315C7.10654 0.900919 7.67393 0.23481 8.41919 0.0553581Z" fill="#FB671D"/>
<path d="M0.598999 0.25193C0.636281 0.112793 0.787664 0 0.937123 0H8.75858C9.36335 0 9.73133 0.456411 9.58047 1.01942C9.40669 1.66799 8.6351 2.15167 7.98996 2.01644L0.747175 0.498324C0.62891 0.473535 0.567142 0.370825 0.598999 0.25193Z" fill="#FB671D"/>
<path d="M2.08728 2.55701C2.12842 2.40351 2.29543 2.27907 2.46031 2.27907H8.89418C9.49388 2.27907 9.85876 2.73165 9.70917 3.28992C9.53312 3.94695 8.74113 4.42937 8.09864 4.27095L2.24158 2.82675C2.11671 2.79596 2.05307 2.6847 2.08728 2.55701Z" fill="#FB671D"/>
<path d="M3.93522 4.89526C3.98148 4.72261 4.16932 4.58265 4.35478 4.58265H8.2922C8.88347 4.58265 9.24322 5.02887 9.09573 5.5793C8.90811 6.2795 8.02379 6.76141 7.38994 6.50887L4.07178 5.18682C3.95488 5.14024 3.90062 5.0244 3.93522 4.89526Z" fill="#FB671D"/>
<path d="M11.5378 17.162C11.2658 18.1771 10.1614 19 9.07104 19C7.98066 19 7.31722 18.1771 7.58921 17.162C7.8612 16.147 8.96562 15.3241 10.056 15.3241C11.1464 15.3241 11.8098 16.147 11.5378 17.162Z" fill="#FB671D"/>
<path d="M23.5524 17.1543C23.2804 18.1694 22.176 18.9923 21.0856 18.9923C19.9952 18.9923 19.3318 18.1694 19.6038 17.1543C19.8758 16.1392 20.9802 15.3164 22.0706 15.3164C23.161 15.3164 23.8244 16.1392 23.5524 17.1543Z" fill="#FB671D"/>
</svg>
