<svg width="223" height="35" viewBox="0 0 223 35" fill="none" xmlns="http://www.w3.org/2000/svg">
<path d="M22.0944 23.9744C22.4152 22.7772 23.7177 21.8067 25.0036 21.8067H49.4987C50.7847 21.8067 51.5671 22.7772 51.2463 23.9744C50.9256 25.1715 49.6231 26.142 48.3371 26.142H23.842C22.556 26.142 21.7736 25.1715 22.0944 23.9744Z" fill="#FB671D"/>
<path d="M22.4863 17.4715C22.8071 16.2743 24.1096 15.3039 25.3956 15.3039H55.1064C56.3923 15.3039 57.1748 16.2743 56.854 17.4715C56.5332 18.6686 55.2307 19.6391 53.9447 19.6391H24.234C22.948 19.6391 22.1656 18.6686 22.4863 17.4715Z" fill="#FB671D"/>
<path d="M22.2263 10.9686C22.5471 9.77144 23.8496 8.80096 25.1356 8.80096H61.5057C62.7916 8.80096 63.5741 9.77144 63.2533 10.9686C62.9325 12.1657 61.63 13.1362 60.344 13.1362H23.9739C22.688 13.1362 21.9056 12.1657 22.2263 10.9686Z" fill="#FB671D"/>
<path d="M22.7212 0.791962C24.0396 0.474503 25.1734 1.13818 25.2537 2.27432L26.7493 23.4525C26.8296 24.5886 25.8258 25.767 24.5074 26.0845C23.189 26.4019 22.0552 25.7382 21.975 24.6021L20.4793 3.42394C20.3991 2.2878 21.4028 1.10942 22.7212 0.791962Z" fill="#FB671D"/>
<path d="M8.88693 1.13971C8.95288 0.893567 9.22069 0.694031 9.48509 0.694031H23.3216C24.3915 0.694031 25.0425 1.50144 24.7756 2.49744C24.4681 3.64479 23.1032 4.50043 21.9619 4.26121L9.14906 1.57559C8.93984 1.53174 8.83057 1.35004 8.88693 1.13971Z" fill="#FB671D"/>
<path d="M11.5198 5.2175C11.5925 4.94596 11.888 4.72582 12.1797 4.72582H23.5615C24.6224 4.72582 25.2679 5.52645 25.0032 6.51406C24.6918 7.67637 23.2908 8.5298 22.1542 8.24954L11.7927 5.69468C11.5718 5.64022 11.4593 5.44339 11.5198 5.2175Z" fill="#FB671D"/>
<path d="M14.7889 9.35397C14.8707 9.04856 15.203 8.80096 15.5311 8.80096H22.4966C23.5425 8.80096 24.179 9.59034 23.918 10.5641C23.5861 11.8028 22.0217 12.6553 20.9004 12.2085L15.0304 9.86976C14.8236 9.78737 14.7277 9.58243 14.7889 9.35397Z" fill="#FB671D"/>
<path d="M28.2382 31.0545C27.7571 32.8502 25.8033 34.3059 23.8744 34.3059C21.9454 34.3059 20.7718 32.8502 21.2529 31.0545C21.7341 29.2588 23.6879 27.803 25.6168 27.803C27.5457 27.803 28.7194 29.2588 28.2382 31.0545Z" fill="#FB671D"/>
<path d="M49.4926 31.0408C49.0114 32.8366 47.0577 34.2923 45.1287 34.2923C43.1998 34.2923 42.0261 32.8366 42.5073 31.0408C42.9885 29.2451 44.9422 27.7894 46.8712 27.7894C48.8001 27.7894 49.9738 29.2451 49.4926 31.0408Z" fill="#FB671D"/>
<path d="M84.6143 14.568C84.6783 14.248 84.7103 13.8107 84.7103 13.256C84.7103 12.936 84.689 12.6267 84.6463 12.328C84.6037 12.008 84.529 11.7307 84.4223 11.496C84.3157 11.24 84.1557 11.048 83.9423 10.92C83.729 10.7707 83.4517 10.696 83.1103 10.696C82.7263 10.696 82.3743 10.7813 82.0543 10.952C81.7343 11.1227 81.4463 11.3467 81.1903 11.624C80.9557 11.88 80.7637 12.1893 80.6143 12.552C80.4863 12.8933 80.4223 13.256 80.4223 13.64C80.4223 14.1947 80.561 14.6213 80.8383 14.92C81.137 15.2187 81.521 15.464 81.9903 15.656C82.4597 15.848 82.993 16.008 83.5903 16.136C84.1877 16.264 84.8063 16.4133 85.4463 16.584C85.9797 16.7333 86.513 16.9253 87.0463 17.16C87.5797 17.3947 88.049 17.7147 88.4543 18.12C88.881 18.504 89.2223 19.016 89.4783 19.656C89.7343 20.2747 89.8623 21.0533 89.8623 21.992C89.8623 23.336 89.5957 24.4667 89.0623 25.384C88.529 26.3013 87.793 27.048 86.8543 27.624C85.9157 28.2 84.7957 28.616 83.4943 28.872C82.2143 29.128 80.817 29.256 79.3023 29.256C77.7663 29.256 76.5077 29.16 75.5263 28.968C74.5663 28.7547 73.809 28.5307 73.2543 28.296C72.593 28.0187 72.1023 27.6987 71.7823 27.336L72.8703 22.952H78.5023C78.481 23.144 78.4597 23.4107 78.4383 23.752C78.417 24.072 78.4063 24.328 78.4063 24.52C78.4063 24.776 78.4383 25.0427 78.5023 25.32C78.5663 25.5973 78.6623 25.8533 78.7903 26.088C78.9397 26.3227 79.1423 26.5147 79.3983 26.664C79.6543 26.8133 79.9743 26.888 80.3583 26.888C80.785 26.888 81.1583 26.792 81.4783 26.6C81.8197 26.408 82.097 26.1733 82.3103 25.896C82.545 25.5973 82.7157 25.2773 82.8223 24.936C82.9503 24.5733 83.0143 24.2213 83.0143 23.88C83.0143 23.4107 82.897 23.016 82.6623 22.696C82.449 22.376 82.1503 22.1093 81.7663 21.896C81.3823 21.6613 80.9343 21.4693 80.4223 21.32C79.9317 21.1493 79.4197 20.9787 78.8863 20.808C78.3743 20.6587 77.8303 20.4773 77.2543 20.264C76.6997 20.0507 76.1877 19.752 75.7183 19.368C75.249 18.984 74.8543 18.504 74.5343 17.928C74.2357 17.3307 74.0863 16.5733 74.0863 15.656C74.0863 14.2907 74.4277 13.1493 75.1103 12.232C75.8143 11.2933 76.689 10.536 77.7343 9.96C78.801 9.384 79.9637 8.97867 81.2223 8.744C82.481 8.488 83.6757 8.36 84.8063 8.36C86.2997 8.36 87.5797 8.54133 88.6463 8.904C89.7343 9.24533 90.5557 9.65067 91.1103 10.12L89.9263 14.568H84.6143ZM91.5318 15.24H98.3158L99.4358 24.648L103.308 15.24H109.42L110.508 24.648L114.38 15.24H117.772L111.404 29H104.716L103.532 22.024L100.3 29H93.6118L91.5318 15.24ZM123.214 29H116.718L119.63 15.24H126.19L123.214 29ZM127.022 11.048C127.022 11.5387 126.915 11.9653 126.702 12.328C126.51 12.6907 126.243 13 125.902 13.256C125.582 13.512 125.208 13.704 124.782 13.832C124.355 13.96 123.918 14.024 123.47 14.024C122.616 14.024 121.902 13.8213 121.326 13.416C120.75 13.0107 120.462 12.3707 120.462 11.496C120.462 11.0267 120.558 10.6107 120.75 10.248C120.942 9.864 121.198 9.55467 121.518 9.32C121.859 9.064 122.243 8.872 122.67 8.744C123.118 8.616 123.576 8.552 124.046 8.552C124.878 8.552 125.582 8.75467 126.158 9.16C126.734 9.56533 127.022 10.1947 127.022 11.048ZM133.997 29H127.469L129.933 17.384H127.437L127.917 15.24H130.381L130.669 13.928C130.946 12.648 131.351 11.5707 131.885 10.696C132.418 9.8 133.047 9.07467 133.773 8.52C134.519 7.96533 135.362 7.57067 136.301 7.336C137.239 7.08 138.242 6.952 139.309 6.952C139.97 6.952 140.674 6.99467 141.421 7.08C142.167 7.16533 142.946 7.304 143.757 7.496L143.245 10.056C142.775 9.992 142.274 9.94933 141.741 9.928C141.207 9.88533 140.781 9.864 140.461 9.864C140.034 9.864 139.661 9.896 139.341 9.96C139.042 10.024 138.775 10.152 138.541 10.344C138.306 10.5147 138.103 10.76 137.933 11.08C137.762 11.4 137.623 11.8267 137.517 12.36L136.909 15.24H138.413C139.223 15.24 139.927 15.144 140.525 14.952C141.122 14.76 141.666 14.4827 142.157 14.12C142.647 13.7573 143.117 13.3093 143.565 12.776C144.034 12.2427 144.535 11.6347 145.069 10.952H148.365L147.437 15.24H149.933L149.517 17.384H146.989L145.677 23.624C145.57 24.1147 145.485 24.552 145.421 24.936C145.357 25.32 145.325 25.6187 145.325 25.832C145.325 26.2587 145.474 26.5253 145.773 26.632C146.093 26.7387 146.679 26.792 147.533 26.792L147.053 29C146.903 29.0427 146.669 29.0747 146.349 29.096C146.05 29.1173 145.709 29.1387 145.325 29.16C144.962 29.2027 144.578 29.224 144.173 29.224C143.789 29.2453 143.447 29.256 143.149 29.256C142.615 29.256 142.093 29.2133 141.581 29.128C141.069 29.064 140.61 28.9253 140.205 28.712C139.799 28.4773 139.469 28.1467 139.213 27.72C138.978 27.2933 138.861 26.7173 138.861 25.992C138.861 25.736 138.871 25.416 138.893 25.032C138.935 24.648 139.01 24.2213 139.117 23.752L140.461 17.384H136.461L133.997 29ZM172.963 29H165.859L168.803 15.176L161.219 29H156.867L155.427 14.696L152.355 29H149.475L153.795 8.68H161.955L162.947 20.136L169.091 8.68H177.315L172.963 29ZM178.779 16.424C179.867 15.8907 180.976 15.5067 182.107 15.272C183.259 15.016 184.539 14.888 185.947 14.888C187.312 14.888 188.443 14.9947 189.339 15.208C190.235 15.4213 190.95 15.7307 191.483 16.136C192.016 16.5413 192.39 17.0213 192.603 17.576C192.816 18.1307 192.923 18.76 192.923 19.464C192.923 19.8693 192.891 20.3067 192.827 20.776C192.784 21.2453 192.731 21.64 192.667 21.96L191.163 29H186.011L185.435 26.952H185.243C184.56 27.6987 183.76 28.2747 182.843 28.68C181.947 29.064 181.051 29.256 180.155 29.256C179.643 29.256 179.142 29.1813 178.651 29.032C178.16 28.8827 177.723 28.6587 177.339 28.36C176.955 28.04 176.646 27.6453 176.411 27.176C176.176 26.6853 176.059 26.0987 176.059 25.416C176.059 24.3067 176.358 23.432 176.955 22.792C177.574 22.1307 178.374 21.64 179.355 21.32C180.358 20.9787 181.478 20.7653 182.715 20.68C183.974 20.5947 185.232 20.552 186.491 20.552C186.534 20.3387 186.587 20.04 186.651 19.656C186.715 19.2507 186.747 18.8987 186.747 18.6C186.747 18.216 186.64 17.864 186.427 17.544C186.235 17.2027 185.819 17.032 185.179 17.032C184.432 17.032 183.878 17.256 183.515 17.704C183.174 18.1307 182.95 18.6533 182.843 19.272H178.171L178.779 16.424ZM186.139 22.056H185.563C184.944 22.056 184.411 22.1413 183.963 22.312C183.536 22.4613 183.184 22.664 182.907 22.92C182.651 23.176 182.459 23.464 182.331 23.784C182.203 24.104 182.139 24.424 182.139 24.744C182.139 25.256 182.267 25.64 182.523 25.896C182.8 26.152 183.12 26.28 183.483 26.28C183.931 26.28 184.368 26.12 184.795 25.8C185.243 25.48 185.52 25.0533 185.627 24.52L186.139 22.056ZM196.723 15.24H201.939L202.419 17.64H202.643C203.134 16.872 203.763 16.2213 204.531 15.688C205.299 15.1547 206.313 14.888 207.571 14.888C207.657 14.888 207.785 14.8987 207.955 14.92C208.147 14.92 208.35 14.952 208.563 15.016C208.798 15.0587 209.033 15.1333 209.267 15.24C209.523 15.3253 209.769 15.4533 210.003 15.624L208.595 22.216H205.107C205.065 20.8933 204.947 19.976 204.755 19.464C204.563 18.9307 204.254 18.664 203.827 18.664C203.614 18.664 203.379 18.7173 203.123 18.824C202.889 18.9093 202.643 19.112 202.387 19.432L200.339 29H193.811L196.723 15.24ZM211.072 15.24C211.861 15.0693 212.555 14.8773 213.152 14.664C213.749 14.4507 214.293 14.184 214.784 13.864C215.296 13.544 215.776 13.1493 216.224 12.68C216.693 12.2107 217.195 11.6347 217.728 10.952H221.024L220.096 15.24H222.592L222.176 17.384H219.648L218.336 23.624C218.229 24.1147 218.144 24.552 218.08 24.936C218.016 25.32 217.984 25.6187 217.984 25.832C217.984 26.2587 218.133 26.5253 218.432 26.632C218.752 26.7387 219.339 26.792 220.192 26.792L219.712 29C219.563 29.0427 219.328 29.0747 219.008 29.096C218.709 29.1173 218.368 29.1387 217.984 29.16C217.621 29.2027 217.237 29.224 216.832 29.224C216.448 29.2453 216.107 29.256 215.808 29.256C215.275 29.256 214.752 29.2133 214.24 29.128C213.728 29.064 213.269 28.9253 212.864 28.712C212.459 28.4773 212.128 28.1467 211.872 27.72C211.637 27.2933 211.52 26.7173 211.52 25.992C211.52 25.736 211.531 25.416 211.552 25.032C211.595 24.648 211.669 24.2213 211.776 23.752L213.12 17.384H210.624L211.072 15.24Z" fill="#FB671D"/>
</svg>
