<svg width="16" height="16" viewBox="0 0 16 16" fill="none" xmlns="http://www.w3.org/2000/svg">
<g clip-path="url(#clip0_109_23511)">
<path d="M14.5 3C14.6326 3 14.7598 3.05268 14.8536 3.14645C14.9473 3.24021 15 3.36739 15 3.5V12.5C15 12.6326 14.9473 12.7598 14.8536 12.8536C14.7598 12.9473 14.6326 13 14.5 13H1.5C1.36739 13 1.24021 12.9473 1.14645 12.8536C1.05268 12.7598 1 12.6326 1 12.5V3.5C1 3.36739 1.05268 3.24021 1.14645 3.14645C1.24021 3.05268 1.36739 3 1.5 3H14.5ZM1.5 2C1.10218 2 0.720644 2.15804 0.43934 2.43934C0.158035 2.72064 0 3.10218 0 3.5L0 12.5C0 12.8978 0.158035 13.2794 0.43934 13.5607C0.720644 13.842 1.10218 14 1.5 14H14.5C14.8978 14 15.2794 13.842 15.5607 13.5607C15.842 13.2794 16 12.8978 16 12.5V3.5C16 3.10218 15.842 2.72064 15.5607 2.43934C15.2794 2.15804 14.8978 2 14.5 2H1.5Z" fill="#21272A"/>
<path d="M7.00005 5.50004C7.00005 5.36743 7.05272 5.24025 7.14649 5.14649C7.24026 5.05272 7.36744 5.00004 7.50005 5.00004H12.5C12.6327 5.00004 12.7598 5.05272 12.8536 5.14649C12.9474 5.24025 13 5.36743 13 5.50004C13 5.63265 12.9474 5.75982 12.8536 5.85359C12.7598 5.94736 12.6327 6.00004 12.5 6.00004H7.50005C7.36744 6.00004 7.24026 5.94736 7.14649 5.85359C7.05272 5.75982 7.00005 5.63265 7.00005 5.50004ZM5.50405 4.64604C5.55061 4.69248 5.58755 4.74766 5.61276 4.80841C5.63796 4.86915 5.65094 4.93427 5.65094 5.00004C5.65094 5.06581 5.63796 5.13093 5.61276 5.19167C5.58755 5.25242 5.55061 5.30759 5.50405 5.35404L4.00405 6.85404C3.9576 6.9006 3.90242 6.93755 3.84168 6.96275C3.78093 6.98796 3.71581 7.00093 3.65005 7.00093C3.58428 7.00093 3.51916 6.98796 3.45841 6.96275C3.39767 6.93755 3.34249 6.9006 3.29605 6.85404L2.79605 6.35404C2.74956 6.30755 2.71268 6.25236 2.68752 6.19162C2.66236 6.13088 2.64941 6.06578 2.64941 6.00004C2.64941 5.86726 2.70216 5.73993 2.79605 5.64604C2.88993 5.55215 3.01727 5.49941 3.15005 5.49941C3.28282 5.49941 3.41016 5.55215 3.50405 5.64604L3.65005 5.79304L4.79605 4.64604C4.84249 4.59948 4.89767 4.56253 4.95841 4.53733C5.01916 4.51212 5.08428 4.49915 5.15005 4.49915C5.21581 4.49915 5.28093 4.51212 5.34168 4.53733C5.40242 4.56253 5.4576 4.59948 5.50405 4.64604ZM7.00005 9.50004C7.00005 9.36743 7.05272 9.24025 7.14649 9.14649C7.24026 9.05272 7.36744 9.00004 7.50005 9.00004H12.5C12.6327 9.00004 12.7598 9.05272 12.8536 9.14649C12.9474 9.24025 13 9.36743 13 9.50004C13 9.63265 12.9474 9.75982 12.8536 9.85359C12.7598 9.94736 12.6327 10 12.5 10H7.50005C7.36744 10 7.24026 9.94736 7.14649 9.85359C7.05272 9.75982 7.00005 9.63265 7.00005 9.50004ZM5.50405 8.64604C5.55061 8.69248 5.58755 8.74766 5.61276 8.80841C5.63796 8.86915 5.65094 8.93427 5.65094 9.00004C5.65094 9.06581 5.63796 9.13093 5.61276 9.19167C5.58755 9.25242 5.55061 9.30759 5.50405 9.35404L4.00405 10.854C3.9576 10.9006 3.90242 10.9375 3.84168 10.9628C3.78093 10.988 3.71581 11.0009 3.65005 11.0009C3.58428 11.0009 3.51916 10.988 3.45841 10.9628C3.39767 10.9375 3.34249 10.9006 3.29605 10.854L2.79605 10.354C2.74956 10.3076 2.71268 10.2524 2.68752 10.1916C2.66236 10.1309 2.64941 10.0658 2.64941 10C2.64941 9.9343 2.66236 9.86919 2.68752 9.80846C2.71268 9.74772 2.74956 9.69253 2.79605 9.64604C2.84253 9.59955 2.89772 9.56267 2.95846 9.53752C3.0192 9.51236 3.0843 9.49941 3.15005 9.49941C3.21579 9.49941 3.28089 9.51236 3.34163 9.53752C3.40237 9.56267 3.45756 9.59955 3.50405 9.64604L3.65005 9.79304L4.79605 8.64604C4.84249 8.59948 4.89767 8.56253 4.95841 8.53733C5.01916 8.51212 5.08428 8.49915 5.15005 8.49915C5.21581 8.49915 5.28093 8.51212 5.34168 8.53733C5.40242 8.56253 5.4576 8.59948 5.50405 8.64604Z" fill="#21272A"/>
</g>
<defs>
<clipPath id="clip0_109_23511">
<rect width="16" height="16" fill="white"/>
</clipPath>
</defs>
</svg>
